<?xml version="1.0" standalone="no"?>
<!DOCTYPE svg PUBLIC "-//W3C//DTD SVG 20010904//EN"
 "http://www.w3.org/TR/2001/REC-SVG-20010904/DTD/svg10.dtd">
<svg version="1.0" xmlns="http://www.w3.org/2000/svg"
 width="640.000000pt" height="640.000000pt" viewBox="0 0 640.000000 640.000000"
 preserveAspectRatio="xMidYMid meet">
<metadata>
Created by potrace 1.14, written by Peter Selinger 2001-2017
</metadata>
<g transform="translate(0.000000,640.000000) scale(0.100000,-0.100000)"
fill="#000000" stroke="none">
<path d="M1737 6364 c-114 -22 -202 -56 -301 -117 -68 -42 -79 -51 -156 -127
-115 -113 -188 -239 -232 -402 l-23 -83 0 -2430 c0 -1337 3 -2443 7 -2460 5
-16 10 -43 13 -59 11 -58 70 -192 115 -261 64 -97 140 -176 229 -240 68 -47
190 -111 231 -120 8 -2 40 -12 70 -21 51 -17 155 -18 1480 -20 1155 -3 1437
-1 1490 10 342 70 597 308 694 646 l21 75 3 2395 c2 1611 -1 2421 -8 2474 -46
356 -328 657 -688 736 -83 19 -144 19 -1482 19 -1132 -1 -1408 -4 -1463 -15z
m2887 -485 c117 -39 218 -139 255 -254 19 -59 20 -108 18 -2441 l-2 -2380 -38
-76 c-57 -117 -152 -192 -274 -218 -32 -7 -506 -10 -1413 -8 l-1365 3 -59 26
c-92 41 -162 109 -205 198 l-36 76 0 2390 0 2390 25 65 c28 73 119 175 182
204 95 45 61 44 1491 45 1349 1 1358 1 1421 -20z"/>
<path d="M2080 5481 c-126 -52 -184 -201 -125 -326 13 -26 207 -227 566 -586
507 -506 551 -548 599 -564 60 -20 136 -15 190 11 49 25 1111 1090 1135 1139
42 84 21 207 -46 274 -72 72 -214 89 -297 35 -14 -9 -223 -214 -464 -455
l-438 -438 -449 448 c-396 396 -454 450 -496 465 -62 21 -118 20 -175 -3z"/>
<path d="M2104 3931 c-137 -35 -212 -203 -148 -336 12 -26 204 -225 565 -586
505 -505 551 -548 599 -564 70 -23 148 -16 201 19 22 15 281 268 577 564 491
492 539 542 556 590 41 117 -10 243 -121 298 -52 25 -155 25 -208 -1 -26 -12
-198 -177 -478 -457 -241 -241 -442 -438 -447 -438 -5 0 -206 197 -447 438
-286 286 -452 444 -478 457 -44 21 -123 28 -171 16z"/>
<path d="M2104 2400 c-36 -8 -90 -43 -118 -76 -55 -67 -69 -181 -31 -259 26
-53 1086 -1114 1141 -1140 52 -26 154 -27 207 -2 52 25 1116 1089 1142 1142
26 53 27 155 0 209 -57 118 -208 169 -324 110 -18 -9 -233 -216 -477 -460
l-444 -444 -449 449 c-395 395 -454 450 -497 465 -50 17 -98 19 -150 6z"/>
</g>
</svg>
